<svg width="80" height="80" viewBox="0 0 80 80" fill="none" xmlns="http://www.w3.org/2000/svg">
<rect width="80" height="80" fill="#2E80C4"/>
<path d="M42.8359 13.0833C42.8359 11.5185 41.5675 10.25 40.0026 10.25C38.4378 10.25 37.1693 11.5185 37.1693 13.0833V15.9167H25.8359V13.0833C25.8359 11.5185 24.5674 10.25 23.0026 10.25C21.4378 10.25 20.1693 11.5185 20.1693 13.0833V15.9167C13.9011 15.9167 8.83594 20.9819 8.83594 27.25V58.4167C8.83594 64.6848 13.9011 69.75 20.1693 69.75H37.1693C38.7341 69.75 40.0026 68.4815 40.0026 66.9167C40.0026 65.3518 38.7341 64.0833 37.1693 64.0833H20.1693C17.0307 64.0833 14.5026 61.5551 14.5026 58.4167V27.25C14.5026 24.1115 17.0307 21.5833 20.1693 21.5833V24.4167C20.1693 25.9815 21.4378 27.25 23.0026 27.25C24.5674 27.25 25.8359 25.9815 25.8359 24.4167V21.5833H37.1693V24.4167C37.1693 25.9815 38.4378 27.25 40.0026 27.25C41.5675 27.25 42.8359 25.9815 42.8359 24.4167V21.5833H54.1693V24.4167C54.1693 25.9815 55.4378 27.25 57.0026 27.25C58.5675 27.25 59.8359 25.9815 59.8359 24.4167V21.5833C62.9744 21.5833 65.5026 24.1115 65.5026 27.25V37.1667C65.5026 38.7315 66.7711 40 68.336 40C69.9008 40 71.1693 38.7315 71.1693 37.1667V27.25C71.1693 20.9819 66.1041 15.9167 59.8359 15.9167V13.0833C59.8359 11.5185 58.5675 10.25 57.0026 10.25C55.4378 10.25 54.1693 11.5185 54.1693 13.0833V15.9167H42.8359V13.0833Z" fill="white"/>
<path d="M25.1302 33.9785C24.1413 33.9785 23.3594 34.7605 23.3594 35.7493V39.9994C23.3594 40.9882 24.1413 41.7702 25.1302 41.7702H29.3802C30.3692 41.7702 31.151 40.9882 31.151 39.9994V35.7493C31.151 34.7605 30.3692 33.9785 29.3802 33.9785H25.1302Z" fill="white"/>
<path d="M37.8802 33.9785C36.8914 33.9785 36.1094 34.7605 36.1094 35.7493V39.9994C36.1094 40.9882 36.8914 41.7702 37.8802 41.7702H42.1302C43.119 41.7702 43.901 40.9882 43.901 39.9994V35.7493C43.901 34.7605 43.119 33.9785 42.1302 33.9785H37.8802Z" fill="white"/>
<path d="M25.1302 46.7285C24.1413 46.7285 23.3594 47.5105 23.3594 48.4993V52.7494C23.3594 53.7382 24.1413 54.5202 25.1302 54.5202H29.3802C30.3692 54.5202 31.151 53.7382 31.151 52.7494V48.4993C31.151 47.5105 30.3692 46.7285 29.3802 46.7285H25.1302Z" fill="white"/>
<path d="M58.3594 51.334C58.3594 50.1604 57.4079 49.209 56.2344 49.209C55.0608 49.209 54.1094 50.1604 54.1094 51.334V55.584C54.1094 56.7576 55.0608 57.709 56.2344 57.709H60.3427C61.5163 57.709 62.4677 56.7576 62.4677 55.584C62.4677 54.4104 61.5163 53.459 60.3427 53.459H58.3594V51.334Z" fill="white"/>
<path fill-rule="evenodd" clip-rule="evenodd" d="M42.0703 55.5827C42.0703 47.7587 48.413 41.416 56.237 41.416C64.0609 41.416 70.4036 47.7587 70.4036 55.5827C70.4036 63.4066 64.0609 69.7493 56.237 69.7493C48.413 69.7493 42.0703 63.4066 42.0703 55.5827ZM56.237 47.0827C51.5424 47.0827 47.737 50.8881 47.737 55.5827C47.737 60.2772 51.5424 64.0827 56.237 64.0827C60.9312 64.0827 64.737 60.2772 64.737 55.5827C64.737 50.8881 60.9312 47.0827 56.237 47.0827Z" fill="white"/>
</svg>
